<svg xmlns="http://www.w3.org/2000/svg" width="24" height="24" viewBox="0 0 24 24"><g><path stroke="#000" stroke-linejoin="round" stroke-miterlimit="10" fill="none" d="M14 9.5h2v4l4-4h3.5v-9h-15v4M6 16.188v2.182l-3.941 1.41c-.944.337-1.559 1.231-1.559 2.232v1.488h15v-1.488c0-1.001-.615-1.895-1.559-2.231l-3.941-1.412v-2.307"/><ellipse stroke="#000" stroke-linejoin="round" stroke-miterlimit="10" cx="7.901" cy="12.053" rx="3.947" ry="4.737" fill="none"/><path stroke="#000" stroke-linejoin="round" stroke-miterlimit="10" d="M11.828 11.624l-.374.034c-1.345.259-2.208-.229-2.948-1.523-.444.851-1.832 1.523-2.973 1.523-.562 0-1.045-.115-1.528-.368" fill="none"/><path d="M20 5h-1v1h1v-1zM17 5h-1v1h1v-1zM14 5h-1v1h1v-1z"/></g></svg>